<?xml version="1.0" encoding="utf-8"?>
<!-- Generator: Adobe Illustrator 23.0.1, SVG Export Plug-In . SVG Version: 6.00 Build 0)  -->
<svg version="1.1" id="Warstwa_1" xmlns="http://www.w3.org/2000/svg" xmlns:xlink="http://www.w3.org/1999/xlink" x="0px" y="0px"
	 viewBox="0 0 256 256" style="enable-background:new 0 0 256 256;" xml:space="preserve">
<style type="text/css">
	
</style>
<g>
	<path class="st0" d="M128,256C57.4,256,0,198.6,0,128S57.4,0,128,0s128,57.4,128,128S198.6,256,128,256z M128,11.5
		C63.7,11.5,11.5,63.7,11.5,128c0,64.3,52.3,116.5,116.5,116.5c64.3,0,116.5-52.3,116.5-116.5C244.5,63.7,192.3,11.5,128,11.5z"/>
</g>
<path class="st0" d="M102.4,206.6c0-25.6,0-51,0-76.7c-5.6,0-11,0-16.6,0c0-8.5,0-16.8,0-25.2c5.5,0,10.9,0,16.6,0
	c0-0.9,0-1.6,0-2.3c0.1-6.8-0.1-13.7,0.5-20.5c0.7-9.2,4.1-17.3,12.3-22.6c4.8-3.1,10.2-4.8,15.7-5.1c9-0.6,18-0.6,27.2-0.9
	c0,8.7,0,16.9,0,25.5c-2,0-4,0-5.9,0c-3.2,0-6.4,0-9.6,0c-5.9,0-9.7,3.1-10,9c-0.4,5.5-0.1,11-0.1,16.7c8.5,0,17,0,25.7,0
	c-0.9,5.2-1.7,10.1-2.5,15c-0.5,2.9-1,5.7-1.4,8.6c-0.2,1.3-0.7,1.6-1.9,1.6c-5.8-0.1-11.7,0-17.5,0c-0.7,0-1.4,0-2.4,0
	c0,25.7,0,51.1,0,76.7C122.4,206.6,112.5,206.6,102.4,206.6z"/>
</svg>
