<?xml version="1.0" encoding="utf-8"?>
<!-- Generator: Adobe Illustrator 23.0.1, SVG Export Plug-In . SVG Version: 6.00 Build 0)  -->
<svg version="1.1" id="Warstwa_1" xmlns="http://www.w3.org/2000/svg" xmlns:xlink="http://www.w3.org/1999/xlink" x="0px" y="0px"
	 viewBox="0 0 256 256" style="enable-background:new 0 0 256 256;" xml:space="preserve">
<style type="text/css">
	path{fill:currentColor;}
</style>
<g>
	<path d="M128,256C57.4,256,0,198.6,0,128S57.4,0,128,0s128,57.4,128,128S198.6,256,128,256z M128,11.5
		C63.7,11.5,11.5,63.7,11.5,128c0,64.3,52.3,116.5,116.5,116.5c64.3,0,116.5-52.3,116.5-116.5C244.5,63.7,192.3,11.5,128,11.5z"/>
</g>
<path d="M103.8,166c-13-1.4-21.5-7.8-26.4-19.9c4,0,7.7,0,11.3,0c-13-5.2-20.4-14.1-21.3-28.3c4.1,1.2,7.9,2.2,11.7,3.3
	c0.1-0.2,0.3-0.5,0.4-0.7c-5.7-4.4-9.6-10-11.2-17c-1.6-7.1-0.6-13.8,3.1-20.5c15.5,18,34.8,28,57.9,29.7c0.5-4.9,0.3-9.7,1.5-14.2
	c5.5-20.3,30.4-27.6,46.2-13.6c1.6,1.4,3,1.8,4.9,1.1c4.9-1.8,9.7-3.5,14.9-5.4c-2,6-5.9,10.6-11.1,14.3c0.1,0.2,0.2,0.5,0.3,0.7
	c4.7-1.3,9.4-2.5,14.4-3.9c-3.2,4.9-7.1,9-11.6,12.4c-1.6,1.2-2,2.4-2,4.4c0.3,36.3-24.2,74.3-67.3,81.2
	c-18.5,2.9-36.1,0.1-52.7-8.9c-1.2-0.6-2.3-1.3-3.4-2.3C78.1,178.8,91.5,175.3,103.8,166z"/>
</svg>
