<?xml version="1.0" encoding="utf-8"?>
<!-- Generator: Adobe Illustrator 23.0.1, SVG Export Plug-In . SVG Version: 6.00 Build 0)  -->
<svg version="1.1" id="Warstwa_1" xmlns="http://www.w3.org/2000/svg" xmlns:xlink="http://www.w3.org/1999/xlink" x="0px" y="0px"
	 viewBox="0 0 256 256" style="enable-background:new 0 0 256 256;" xml:space="preserve">
<style type="text/css">
	
</style>
<g>
	<path class="st0" d="M128,71.9c18.3,0,20.4,0.1,27.6,0.4c6.7,0.3,10.3,1.4,12.7,2.4c3.2,1.2,5.5,2.7,7.9,5.1s3.9,4.7,5.1,7.9
		c0.9,2.4,2.1,6,2.4,12.7c0.3,7.2,0.4,9.4,0.4,27.6s-0.1,20.4-0.4,27.6c-0.3,6.7-1.4,10.3-2.4,12.7c-1.2,3.2-2.7,5.5-5.1,7.9
		s-4.7,3.9-7.9,5.1c-2.4,0.9-6,2.1-12.7,2.4c-7.2,0.3-9.4,0.4-27.6,0.4s-20.4-0.1-27.6-0.4c-6.7-0.3-10.3-1.4-12.7-2.4
		c-3.2-1.2-5.5-2.7-7.9-5.1c-2.4-2.4-3.9-4.7-5.1-7.9c-0.9-2.4-2.1-6-2.4-12.7c-0.3-7.2-0.4-9.4-0.4-27.6s0.1-20.4,0.4-27.6
		c0.3-6.7,1.4-10.3,2.4-12.7c1.2-3.2,2.7-5.5,5.1-7.9c2.4-2.4,4.7-3.9,7.9-5.1c2.4-0.9,6-2.1,12.7-2.4C107.6,72,109.7,71.9,128,71.9
		 M128,59.6c-18.6,0-20.9,0.1-28.2,0.4c-7.3,0.3-12.3,1.5-16.6,3.2c-4.5,1.7-8.3,4.1-12.1,7.9c-3.8,3.8-6.1,7.6-7.9,12.1
		c-1.7,4.4-2.8,9.3-3.2,16.6c-0.3,7.3-0.4,9.6-0.4,28.2s0.1,20.9,0.4,28.2c0.3,7.3,1.5,12.3,3.2,16.6c1.7,4.5,4.1,8.3,7.9,12.1
		c3.8,3.8,7.6,6.1,12.1,7.9c4.4,1.7,9.3,2.8,16.6,3.2c7.3,0.3,9.6,0.4,28.2,0.4s20.9-0.1,28.2-0.4c7.3-0.3,12.3-1.5,16.6-3.2
		c4.5-1.7,8.3-4.1,12.1-7.9s6.1-7.6,7.9-12.1c1.7-4.4,2.8-9.3,3.2-16.6c0.3-7.3,0.4-9.6,0.4-28.2s-0.1-20.9-0.4-28.2
		c-0.3-7.3-1.5-12.3-3.2-16.6c-1.7-4.5-4.1-8.3-7.9-12.1s-7.6-6.1-12.1-7.9c-4.4-1.7-9.3-2.8-16.6-3.2
		C148.9,59.7,146.6,59.6,128,59.6z M128,92.9c-19.4,0-35.1,15.7-35.1,35.1s15.7,35.1,35.1,35.1s35.1-15.7,35.1-35.1
		S147.4,92.9,128,92.9z M128,150.8c-12.6,0-22.8-10.2-22.8-22.8s10.2-22.8,22.8-22.8s22.8,10.2,22.8,22.8S140.6,150.8,128,150.8z
		 M172.7,91.5c0,4.5-3.7,8.2-8.2,8.2s-8.2-3.7-8.2-8.2s3.7-8.2,8.2-8.2S172.7,87,172.7,91.5z"/>
</g>
<g>
	<path class="st0" d="M128,256C57.4,256,0,198.6,0,128S57.4,0,128,0s128,57.4,128,128S198.6,256,128,256z M128,11.5
		C63.7,11.5,11.5,63.7,11.5,128c0,64.3,52.3,116.5,116.5,116.5c64.3,0,116.5-52.3,116.5-116.5C244.5,63.7,192.3,11.5,128,11.5z"/>
</g>
</svg>
